<?xml version="1.0" standalone="no"?>
<!DOCTYPE svg PUBLIC "-//W3C//DTD SVG 20010904//EN"
 "http://www.w3.org/TR/2001/REC-SVG-20010904/DTD/svg10.dtd">
<svg version="1.0" xmlns="http://www.w3.org/2000/svg"
 width="500.000000pt" height="500.000000pt" viewBox="0 0 500.000000 500.000000"
 preserveAspectRatio="xMidYMid meet">
<metadata>
Created by potrace 1.14, written by Peter Selinger 2001-2017
</metadata>
<g transform="translate(0.000000,500.000000) scale(0.100000,-0.100000)"
fill="#000000" stroke="none">
<path d="M2355 4789 c-154 -20 -342 -102 -463 -200 -129 -104 -234 -264 -272
-415 -21 -83 -27 -238 -11 -307 l9 -38 -87 -87 c-93 -92 -138 -165 -166 -272
-19 -70 -19 -210 0 -280 45 -170 169 -316 340 -399 132 -65 178 -73 458 -78
l247 -5 0 -339 c0 -371 0 -369 60 -369 58 0 60 10 60 376 l0 332 278 5 c315 5
341 10 492 84 279 137 415 444 317 716 -36 100 -73 155 -158 239 l-78 76 10
64 c12 70 5 181 -16 275 -49 211 -220 420 -433 527 -67 34 -172 71 -242 86
-77 15 -261 21 -345 9z m307 -123 c168 -32 317 -111 428 -226 77 -80 122 -152
157 -252 23 -62 26 -91 27 -193 1 -76 -4 -134 -12 -157 -7 -21 -11 -46 -7 -57
3 -11 35 -41 71 -67 77 -57 144 -142 175 -222 27 -71 36 -191 19 -264 -31
-135 -133 -257 -273 -327 -122 -62 -181 -71 -469 -71 l-248 0 0 183 0 182 128
117 c70 64 147 136 172 159 25 23 56 43 70 44 69 6 120 61 120 129 0 82 -57
132 -141 124 -82 -8 -132 -76 -111 -152 l10 -35 -121 -111 -122 -112 -5 402
c-5 383 -6 402 -24 416 -26 19 -49 18 -75 -3 -20 -17 -21 -28 -23 -231 l-3
-212 -100 92 c-97 89 -100 94 -106 143 -10 86 -51 125 -132 125 -109 0 -167
-132 -91 -211 30 -31 81 -50 113 -42 16 4 56 -28 171 -132 l150 -138 0 -368 0
-369 -214 0 c-148 0 -239 5 -293 15 -282 53 -478 307 -432 559 22 124 106 250
211 318 63 41 70 59 51 129 -23 88 -13 266 21 354 89 232 307 407 573 460 91
18 244 18 335 1z"/>
<path d="M3425 2330 c-158 -17 -285 -69 -363 -148 -123 -127 -163 -361 -85
-504 41 -75 121 -143 226 -193 58 -28 205 -77 397 -133 401 -119 456 -141 537
-215 65 -60 94 -116 101 -193 17 -217 -151 -397 -406 -434 -286 -41 -556 41
-754 228 l-58 55 0 112 c0 94 -3 114 -16 119 -33 12 -55 6 -64 -20 -6 -14 -10
-138 -10 -278 0 -278 2 -290 55 -284 l30 3 5 97 c3 53 8 99 12 103 3 4 38 -17
76 -47 88 -67 192 -119 307 -154 83 -26 103 -28 260 -27 142 0 183 3 248 21
265 73 402 240 402 492 0 87 -3 101 -32 161 -70 143 -182 210 -499 304 -104
31 -250 74 -324 96 -196 59 -268 91 -337 154 -77 69 -107 133 -106 225 1 96
33 172 102 240 89 89 181 123 364 136 224 15 435 -68 615 -239 l62 -60 0 -97
c0 -111 10 -134 55 -128 l30 3 3 279 c2 295 1 306 -44 306 -34 0 -44 -28 -44
-125 0 -67 -3 -86 -13 -82 -7 2 -47 30 -90 60 -128 92 -260 145 -412 166 -84
12 -124 12 -230 1z"/>
<path d="M632 2298 c-16 -16 -15 -55 1 -65 6 -4 64 -10 127 -13 l115 -5 3
-842 c1 -464 1 -844 0 -844 -2 -1 -59 -5 -128 -8 l-125 -6 0 -35 0 -35 290 0
290 0 0 35 0 35 -108 5 c-81 4 -110 9 -117 20 -14 21 -13 706 0 731 10 18 23
19 205 19 l194 0 267 -366 c146 -201 267 -373 268 -382 1 -15 -14 -18 -109
-22 l-110 -5 0 -35 0 -35 297 -3 c289 -2 297 -2 308 18 8 14 8 26 0 40 -10 18
-21 20 -110 20 -54 0 -111 5 -125 12 -15 7 -127 151 -292 376 -204 280 -263
366 -252 373 8 5 41 9 74 9 200 1 371 99 444 253 38 81 51 147 51 260 0 157
-43 276 -132 365 -62 62 -126 97 -224 122 -72 19 -112 20 -584 20 -380 0 -509
-3 -518 -12z m1059 -88 c123 -23 220 -98 273 -210 30 -63 31 -70 31 -200 0
-130 -1 -137 -31 -200 -38 -80 -88 -132 -162 -169 -93 -46 -137 -51 -491 -51
-291 0 -330 2 -335 16 -8 20 -8 788 0 808 5 14 44 16 334 16 180 0 352 -5 381
-10z"/>
</g>
</svg>
