<?xml version="1.0" standalone="no"?>
<!DOCTYPE svg PUBLIC "-//W3C//DTD SVG 20010904//EN"
 "http://www.w3.org/TR/2001/REC-SVG-20010904/DTD/svg10.dtd">
<svg version="1.0" xmlns="http://www.w3.org/2000/svg"
 width="80.000000pt" height="80.000000pt" viewBox="0 0 80.000000 80.000000"
 preserveAspectRatio="xMidYMid meet">
<metadata>
Created by potrace 1.16, written by Peter Selinger 2001-2019
</metadata>
<g transform="translate(0.000000,80.000000) scale(0.016000,-0.016000)"
fill="#000000" stroke="none">
<path d="M2300 4775 c-299 -64 -543 -258 -647 -515 -44 -110 -57 -209 -44
-335 l11 -110 -28 -19 c-46 -33 -112 -105 -152 -166 -86 -134 -109 -316 -60
-470 49 -151 171 -289 324 -364 128 -63 164 -68 449 -73 l257 -5 0 -328 c0
-187 4 -340 10 -354 12 -34 54 -44 80 -21 19 17 20 35 22 359 l3 341 290 6
c299 6 317 9 423 51 100 41 169 88 240 163 114 119 162 237 162 395 0 169 -49
280 -180 411 l-86 86 9 39 c5 21 7 91 4 154 -6 177 -59 311 -181 462 -95 118
-284 234 -453 280 -101 27 -355 34 -453 13z m358 -104 c181 -35 312 -104 434
-228 157 -159 218 -350 181 -567 l-16 -100 34 -26 c79 -59 170 -160 199 -222
87 -187 51 -380 -97 -527 -74 -73 -170 -129 -268 -156 -45 -12 -122 -18 -306
-22 -136 -3 -259 -3 -273 1 l-26 6 1 183 0 182 170 154 c93 85 169 158 169
163 0 4 18 8 40 8 32 0 48 7 78 34 34 32 37 38 37 91 0 53 -3 59 -37 91 -30
27 -46 34 -78 34 -88 0 -136 -55 -127 -145 l5 -51 -120 -110 c-66 -60 -124
-110 -129 -112 -5 -2 -9 174 -9 402 l0 406 -24 15 c-28 19 -58 9 -76 -25 -6
-11 -10 -104 -10 -225 l0 -207 -110 102 c-98 91 -109 104 -104 129 8 40 -20
97 -58 121 -44 26 -97 26 -139 -3 -104 -70 -51 -227 77 -227 42 0 49 -5 188
-132 l145 -133 -2 -375 -2 -375 -230 1 c-261 1 -321 11 -440 73 -87 45 -183
139 -223 221 -107 213 -45 447 157 598 39 29 71 58 71 65 0 7 -7 46 -16 87
-31 145 -1 315 78 448 47 79 170 199 255 249 126 74 289 120 435 122 37 1 112
-8 166 -18z"/>
<path d="M3340 2316 c-216 -48 -340 -156 -386 -336 -22 -88 -15 -218 15 -281
68 -143 189 -215 526 -314 398 -117 464 -138 531 -170 94 -46 176 -125 199
-195 43 -129 -2 -291 -107 -385 -90 -81 -182 -116 -346 -134 -252 -27 -507 57
-698 231 l-53 49 -3 116 c-3 98 -6 118 -20 127 -13 8 -23 8 -35 0 -16 -10 -18
-36 -18 -295 l0 -284 26 -3 c39 -5 48 16 51 114 2 72 6 89 18 88 8 -1 46 -24
83 -52 185 -140 434 -204 677 -172 184 24 316 83 407 182 118 130 154 347 81
497 -31 65 -122 150 -200 189 -87 43 -167 70 -423 143 -452 129 -548 177 -610
303 -46 94 -41 218 12 305 30 49 108 123 153 146 115 59 315 81 470 51 140
-26 302 -114 429 -232 l60 -56 3 -111 3 -112 26 -3 c48 -6 50 5 47 298 -3 247
-5 274 -20 284 -13 8 -23 8 -35 0 -15 -9 -19 -28 -21 -103 -2 -65 -7 -93 -16
-97 -7 -3 -49 20 -92 52 -120 85 -222 131 -356 159 -84 18 -299 18 -378 1z"/>
<path d="M631 2296 c-8 -9 -11 -26 -7 -40 6 -24 8 -24 126 -28 94 -2 123 -6
130 -18 6 -9 10 -339 10 -841 0 -670 -2 -829 -13 -837 -7 -6 -64 -13 -127 -14
-95 -3 -115 -6 -124 -20 -8 -13 -8 -23 0 -35 10 -16 35 -18 289 -18 254 0 279
2 289 18 8 12 8 22 0 35 -9 14 -29 18 -110 20 -54 1 -104 8 -111 14 -18 15
-19 728 -1 746 9 9 68 12 207 12 l196 -1 267 -368 c147 -203 268 -375 270
-382 2 -11 -22 -15 -112 -19 l-115 -5 0 -35 0 -35 300 0 300 0 0 35 0 35 -116
5 c-78 3 -121 10 -133 19 -28 23 -529 714 -530 730 -1 13 17 17 89 23 172 15
273 56 358 147 85 90 127 210 127 361 0 249 -120 420 -344 488 -77 24 -1096
31 -1115 8z m1004 -76 c212 -24 336 -140 366 -343 28 -191 -44 -366 -181 -441
-99 -54 -129 -58 -481 -63 -234 -4 -332 -2 -348 6 -21 12 -21 13 -21 421 0
379 1 410 18 419 22 14 528 14 647 1z"/>
</g>
</svg>
